<?xml version="1.0" standalone="no"?>
<!DOCTYPE svg PUBLIC "-//W3C//DTD SVG 20010904//EN"
 "http://www.w3.org/TR/2001/REC-SVG-20010904/DTD/svg10.dtd">
<svg version="1.0" xmlns="http://www.w3.org/2000/svg"
 width="1344.000000pt" height="768.000000pt" viewBox="0 0 1344.000000 768.000000"
 preserveAspectRatio="xMidYMid meet">

<g transform="translate(0.000000,768.000000) scale(0.100000,-0.100000)"
fill="#000000" stroke="none">
<path d="M6207 6449 c-281 -10 -304 -14 -332 -68 -21 -42 -29 -129 -16 -177
16 -61 50 -89 137 -112 88 -24 129 -46 158 -85 l21 -28 0 -1109 0 -1109 -21
-28 c-27 -36 -73 -68 -132 -89 -145 -52 -172 -83 -172 -199 0 -77 18 -127 55
-151 24 -16 41 -16 248 -3 288 18 1072 19 1252 1 72 -7 225 -26 340 -42 227
-32 285 -36 317 -19 41 22 47 65 68 431 47 845 45 762 24 805 -35 70 -163 115
-231 80 -35 -18 -44 -39 -73 -157 -85 -347 -235 -602 -400 -679 -49 -23 -67
-26 -160 -25 -127 1 -212 18 -248 49 l-27 23 -3 1029 c-2 565 0 1065 3 1110
10 125 57 177 185 204 82 18 109 35 131 82 24 53 25 156 3 203 -32 68 -34 68
-474 70 -217 1 -511 -2 -653 -7z m1061 -56 c33 -20 45 -59 39 -127 -7 -76 -31
-101 -117 -122 -123 -31 -187 -83 -209 -170 -8 -29 -11 -379 -11 -1129 0 -937
2 -1090 15 -1114 20 -40 85 -68 189 -82 132 -17 231 -9 301 26 160 78 313 320
395 625 17 63 35 132 41 152 14 54 35 71 79 65 56 -7 109 -36 126 -69 13 -26
12 -75 -11 -481 -41 -726 -37 -692 -81 -703 -14 -4 -125 7 -247 24 -292 41
-392 50 -697 64 -261 11 -707 1 -989 -23 -68 -6 -134 -8 -148 -4 -35 8 -56 65
-51 137 5 71 29 100 107 128 139 51 189 91 212 172 19 65 19 2178 1 2230 -22
61 -79 103 -179 133 -118 36 -133 52 -133 151 0 80 14 107 62 119 42 10 751
23 1018 18 207 -4 270 -8 288 -20z"/>
<path d="M6360 6360 c-113 -4 -245 -8 -295 -9 -49 -1 -96 -5 -104 -10 -18 -11
-26 -93 -12 -119 8 -14 37 -29 95 -46 102 -31 173 -77 199 -130 12 -22 23 -72
28 -120 10 -109 10 -1952 0 -2088 -13 -167 -51 -216 -216 -279 -108 -42 -115
-49 -115 -120 0 -32 5 -61 10 -64 6 -4 75 -2 153 4 255 20 705 30 973 21 301
-10 399 -19 702 -62 168 -23 226 -28 231 -19 4 6 13 102 19 214 47 782 52 890
42 902 -14 16 -91 38 -100 28 -4 -4 -23 -71 -43 -149 -83 -336 -246 -595 -432
-685 -69 -34 -70 -34 -210 -33 -159 1 -248 19 -303 61 -69 52 -67 30 -70 713
-1 338 1 842 6 1120 7 487 8 506 29 545 42 80 116 131 226 156 37 8 64 20 73
33 18 26 18 110 0 125 -17 15 -597 22 -886 11z"/>
<path d="M5215 6409 c-827 -62 -1676 -139 -1757 -160 -20 -5 -46 -21 -57 -35
-45 -57 -53 -219 -14 -272 20 -28 54 -41 157 -62 71 -15 109 -47 125 -108 8
-29 11 -383 9 -1229 l-3 -1188 -23 -51 c-28 -63 -62 -96 -172 -171 -46 -32
-94 -72 -106 -90 -19 -28 -23 -30 -36 -17 -8 8 -46 20 -84 26 -86 13 -148 41
-179 82 -28 37 -795 1574 -795 1594 0 17 221 406 348 612 191 309 260 382 463
485 157 80 162 88 163 222 1 78 -2 96 -20 120 -40 54 -57 57 -242 34 -497 -63
-790 -104 -813 -117 -40 -20 -62 -77 -67 -174 -3 -77 -2 -88 20 -120 18 -27
36 -39 83 -53 102 -32 115 -39 121 -63 9 -34 -20 -90 -253 -489 -116 -198
-263 -452 -328 -565 -65 -113 -124 -214 -132 -225 -22 -30 -13 995 9 1072 25
87 56 117 185 179 106 51 116 58 134 97 13 30 19 65 19 125 0 132 -33 178
-126 174 -52 -2 -1155 -156 -1267 -176 -89 -17 -103 -25 -128 -81 -23 -50 -26
-189 -5 -240 20 -46 46 -60 153 -79 176 -31 174 -27 185 -321 5 -121 5 -776
-1 -1460 -10 -1383 -5 -1301 -80 -1386 -21 -24 -79 -71 -130 -103 -116 -76
-131 -102 -131 -234 0 -50 4 -102 9 -115 15 -39 51 -67 87 -67 18 0 318 95
666 211 496 165 638 216 655 235 30 33 43 85 43 175 0 63 -4 82 -23 110 -25
38 -70 58 -135 58 -65 1 -108 23 -121 63 -12 37 -18 1184 -6 1196 3 4 13 -2
21 -13 35 -47 504 -997 504 -1020 0 -41 -23 -76 -85 -129 -66 -57 -82 -89 -91
-183 -11 -122 27 -193 103 -193 18 0 140 39 271 86 215 78 409 143 837 281
142 45 151 50 174 86 22 33 26 35 40 23 9 -8 27 -17 41 -21 25 -6 51 1 455
125 460 140 971 253 1493 330 215 32 234 40 251 109 5 20 26 259 47 531 36
472 37 497 21 530 -24 50 -67 72 -148 78 -106 7 -130 -16 -164 -158 -39 -166
-129 -374 -218 -504 -53 -78 -150 -172 -221 -215 -78 -46 -236 -99 -322 -107
-114 -11 -110 -21 -119 297 -3 145 -5 374 -3 509 l3 245 65 3 c155 8 202 -47
255 -303 19 -92 27 -113 51 -133 25 -22 35 -24 94 -20 36 3 80 12 97 22 63 32
66 47 75 401 9 348 2 859 -13 916 -5 19 -20 46 -34 59 -22 20 -31 22 -88 18
-76 -6 -133 -31 -151 -67 -7 -14 -19 -57 -25 -96 -38 -228 -138 -367 -288
-400 l-33 -7 0 477 c0 520 1 529 57 559 38 19 163 36 267 36 156 0 236 -43
322 -172 64 -94 107 -204 146 -368 38 -156 41 -165 73 -186 57 -38 191 -5 233
56 l24 35 -5 490 c-5 540 -6 549 -66 579 -35 19 -27 19 -346 -5z m339 -40 c19
-17 25 -134 32 -559 6 -390 5 -438 -9 -466 -29 -56 -146 -85 -186 -45 -11 11
-23 46 -30 84 -51 296 -187 540 -339 610 -43 20 -63 22 -217 21 -180 0 -233
-9 -280 -46 -55 -43 -56 -48 -62 -601 l-6 -510 49 8 c201 30 310 155 362 419
22 107 34 128 91 144 58 18 95 15 117 -9 18 -20 19 -45 19 -623 0 -649 0 -651
-53 -675 -43 -20 -115 -24 -135 -9 -13 10 -28 53 -47 138 -43 190 -86 270
-163 299 -30 12 -195 15 -221 5 -14 -5 -16 -60 -16 -518 0 -323 4 -525 11
-548 15 -56 52 -72 153 -65 145 10 299 71 420 167 164 130 295 366 377 675 35
135 49 150 127 142 60 -6 99 -27 112 -61 13 -35 -62 -1012 -80 -1047 -14 -25
-48 -33 -321 -74 -513 -77 -1000 -192 -1602 -380 -98 -30 -191 -55 -207 -55
-45 0 -60 31 -60 121 0 95 20 128 105 178 87 51 178 145 200 206 25 72 36 619
33 1650 l-3 820 -25 50 c-32 63 -72 90 -168 111 -42 9 -85 21 -94 25 -30 16
-41 77 -29 155 12 78 29 99 89 108 188 30 1983 179 2027 169 11 -3 24 -9 29
-14z m-2359 -222 c21 -30 21 -175 0 -205 -9 -12 -69 -49 -133 -82 -188 -96
-279 -186 -425 -420 -164 -264 -407 -689 -407 -711 0 -25 786 -1593 815 -1627
38 -45 111 -80 192 -92 86 -12 103 -30 103 -109 0 -61 -13 -117 -33 -145 -8
-11 -128 -53 -332 -117 -176 -56 -449 -148 -607 -205 -159 -57 -295 -104 -303
-104 -8 0 -24 9 -35 20 -17 17 -20 33 -20 105 0 103 10 127 79 184 67 56 91
97 91 155 0 40 -30 107 -245 535 -135 269 -255 501 -266 515 -18 23 -28 27
-63 24 l-41 -3 0 -615 c0 -573 1 -617 18 -648 26 -47 67 -68 146 -76 88 -8 98
-12 116 -47 30 -58 10 -209 -31 -232 -25 -14 -1261 -427 -1277 -427 -33 0 -52
41 -56 122 -4 102 14 153 66 187 153 98 194 135 233 211 11 22 25 74 30 115
15 116 25 2762 11 2858 -20 138 -47 165 -195 192 -50 9 -99 19 -109 22 -28 8
-47 64 -47 138 0 74 18 128 49 144 11 6 152 29 313 51 161 22 450 62 642 90
192 27 364 50 381 50 54 0 70 -29 70 -124 0 -122 -6 -132 -135 -194 -80 -39
-118 -64 -145 -94 -69 -81 -68 -76 -74 -733 -3 -324 -5 -591 -4 -593 1 -2 10
1 21 7 24 13 38 35 247 401 87 151 225 390 308 530 240 408 255 440 226 504
-13 27 -57 52 -111 63 -87 16 -115 60 -104 161 9 78 23 108 54 121 34 13 931
129 955 123 10 -2 24 -14 32 -25z"/>
<path d="M5065 6304 c-220 -18 -512 -42 -650 -53 -411 -34 -909 -83 -932 -92
-18 -7 -22 -19 -28 -74 -9 -81 -5 -86 90 -109 151 -35 205 -89 226 -225 15
-100 6 -2334 -10 -2405 -27 -121 -98 -214 -217 -286 -98 -59 -104 -69 -104
-150 0 -53 3 -70 14 -70 7 0 94 25 192 55 632 197 1215 332 1729 400 66 9 129
18 141 20 24 5 23 -7 74 645 23 302 26 367 15 379 -7 7 -33 16 -58 18 l-46 5
-15 -53 c-8 -30 -24 -90 -36 -133 -11 -43 -37 -118 -56 -165 -124 -301 -289
-487 -514 -577 -157 -64 -333 -83 -397 -44 -70 42 -68 22 -68 645 l0 559 35 8
c56 13 201 12 248 -1 95 -27 162 -124 201 -294 40 -167 32 -152 76 -150 74 5
69 -27 74 569 2 294 0 564 -4 599 -7 72 -15 78 -79 51 -32 -13 -35 -18 -46
-88 -34 -210 -124 -364 -249 -428 -50 -25 -152 -50 -208 -50 -38 0 -43 3 -49
27 -4 15 -4 258 -1 539 7 568 7 566 73 624 58 51 126 64 324 65 170 0 177 -1
233 -27 159 -75 284 -276 352 -568 15 -63 29 -121 31 -127 5 -17 37 -16 81 2
l36 15 -7 438 c-3 240 -9 461 -13 490 -5 48 -8 52 -32 51 -14 -1 -206 -16
-426 -35z"/>
<path d="M2745 6075 c-176 -23 -366 -48 -422 -55 -114 -14 -110 -11 -120 -101
-7 -72 1 -83 75 -105 116 -33 152 -71 152 -159 0 -65 -14 -94 -205 -420 -87
-148 -248 -425 -357 -615 -121 -211 -212 -358 -234 -378 -30 -28 -41 -33 -77
-30 l-42 3 3 570 c3 559 10 697 37 762 26 62 101 129 193 173 121 57 116 54
123 86 10 45 10 117 0 133 -10 15 -60 8 -1221 -156 -58 -8 -109 -19 -115 -24
-14 -14 -19 -143 -6 -167 7 -13 25 -22 58 -27 201 -28 260 -76 284 -226 15
-101 6 -2801 -10 -2904 -22 -134 -84 -218 -237 -319 -52 -34 -81 -60 -85 -76
-10 -35 -10 -143 -1 -158 6 -9 109 22 418 128 225 76 503 169 617 206 155 50
211 72 219 87 18 35 23 141 6 155 -8 6 -52 16 -98 21 -98 11 -125 27 -160 97
l-25 49 -3 626 -3 627 27 21 c19 15 41 21 75 21 85 0 91 -9 363 -550 134 -267
249 -508 255 -536 20 -84 4 -123 -90 -217 l-79 -80 0 -78 c0 -44 3 -79 8 -79
4 0 68 23 142 50 269 101 448 162 743 255 165 52 307 100 314 108 19 19 30
132 14 151 -6 7 -38 16 -70 20 -82 9 -174 57 -213 110 -30 40 -690 1352 -783
1555 l-48 104 22 45 c29 60 260 458 367 633 189 308 288 407 508 509 46 21 86
45 89 55 4 9 7 46 7 81 l0 64 -47 -1 c-27 -1 -192 -20 -368 -44z"/>
<path d="M8284 6391 c-40 -25 -54 -65 -54 -160 0 -94 19 -131 82 -157 115 -50
184 -91 205 -122 17 -25 22 -54 28 -135 3 -56 5 -577 3 -1157 -3 -1003 -4
-1057 -21 -1084 -23 -34 -64 -52 -142 -61 -126 -15 -158 -51 -159 -180 -1 -84
15 -128 55 -153 10 -6 116 -30 236 -52 659 -124 954 -199 1543 -392 283 -93
307 -99 342 -89 53 16 75 50 82 124 11 110 48 1120 44 1189 -3 54 -8 72 -28
93 -82 88 -221 94 -254 13 -8 -18 -26 -90 -40 -161 -65 -312 -197 -560 -337
-633 -54 -28 -125 -28 -232 0 -109 28 -191 68 -220 107 -11 15 -23 46 -28 70
-12 64 -11 2294 1 2359 16 85 50 111 176 135 42 8 86 23 97 32 32 29 47 78 47
153 0 121 -37 172 -132 183 -29 4 -260 22 -513 42 -253 20 -509 40 -570 45
-153 14 -176 13 -211 -9z m676 -71 c573 -44 654 -53 676 -70 36 -31 42 -176 9
-227 -9 -13 -29 -25 -52 -28 -126 -21 -199 -58 -229 -117 -10 -19 -19 -76 -25
-152 -11 -159 -11 -2104 0 -2223 15 -153 52 -194 230 -253 111 -37 211 -48
277 -30 170 48 328 323 408 710 17 83 32 129 43 137 41 31 138 4 176 -48 19
-26 19 -33 -7 -655 -28 -661 -28 -664 -75 -677 -10 -2 -149 38 -308 90 -546
180 -901 271 -1498 384 -193 36 -275 56 -288 68 -40 39 -43 175 -6 212 19 19
24 21 126 37 35 6 75 17 90 24 40 19 71 71 78 131 3 29 5 554 3 1167 -3 1068
-4 1117 -22 1153 -26 54 -78 92 -179 134 -106 44 -117 60 -117 163 0 63 3 74
26 97 23 23 30 25 82 19 31 -3 293 -24 582 -46z"/>
<path d="M8324 6309 c-10 -16 -10 -111 0 -127 5 -8 50 -33 100 -56 137 -64
184 -111 205 -207 12 -59 24 -2017 13 -2196 -8 -121 -13 -150 -33 -190 -31
-60 -85 -89 -198 -107 -45 -7 -84 -16 -87 -19 -3 -3 -5 -34 -5 -68 0 -45 4
-67 15 -74 8 -6 75 -22 148 -34 569 -98 1112 -236 1678 -426 107 -36 200 -65
207 -65 7 0 15 10 17 23 3 12 17 291 33 620 27 597 27 597 7 617 -26 27 -80
42 -92 27 -6 -7 -19 -63 -31 -125 -47 -244 -153 -488 -267 -611 -119 -128
-227 -156 -419 -107 -134 35 -238 86 -275 137 -56 79 -55 43 -55 1314 0 1079
1 1174 17 1226 30 95 112 155 239 174 25 4 52 11 60 15 19 13 20 147 0 159
-19 12 -67 17 -526 51 -220 17 -472 37 -560 45 -193 18 -182 18 -191 4z"/>
<path d="M10300 6207 c-40 -20 -60 -72 -60 -154 0 -121 20 -151 145 -216 102
-54 189 -139 233 -228 33 -68 239 -599 480 -1234 l136 -360 8 -435 c4 -239 3
-502 -1 -583 -10 -184 -11 -185 -132 -199 -125 -14 -141 -20 -166 -57 -20 -29
-23 -47 -23 -123 0 -99 19 -154 62 -176 12 -6 205 -74 428 -151 223 -76 503
-174 623 -217 193 -68 222 -76 254 -68 60 15 77 49 81 164 5 126 -7 153 -102
227 -180 142 -187 155 -197 368 -10 223 -10 956 0 1035 7 53 41 137 184 450
340 748 473 1032 519 1103 36 57 90 91 177 111 106 25 131 64 131 203 0 95
-15 136 -63 167 -13 9 -86 24 -173 36 -82 11 -267 38 -410 61 -243 38 -264 39
-297 25 -55 -23 -71 -63 -72 -178 0 -119 9 -134 121 -198 65 -37 83 -53 102
-90 26 -52 28 -91 7 -151 -9 -24 -100 -241 -202 -482 -185 -432 -187 -437
-200 -405 -44 116 -305 830 -349 958 -30 85 -54 169 -54 187 0 40 24 58 100
74 71 15 87 24 110 62 29 46 29 208 0 254 -34 57 -52 62 -328 98 -143 19 -424
57 -625 85 -398 55 -410 56 -447 37z m310 -62 c135 -19 416 -57 625 -85 245
-33 388 -56 403 -66 32 -21 42 -54 42 -135 0 -90 -17 -125 -68 -138 -136 -35
-148 -42 -162 -90 -13 -46 11 -128 128 -446 54 -148 148 -403 207 -565 60
-162 112 -299 115 -303 4 -5 42 74 85 175 43 101 132 309 198 463 158 369 167
395 167 461 0 96 -40 149 -157 208 -75 37 -87 61 -86 162 1 109 15 134 77 134
24 0 156 -18 292 -39 137 -22 303 -47 369 -56 145 -19 162 -25 181 -70 27 -66
12 -207 -26 -230 -6 -4 -39 -14 -73 -22 -125 -29 -171 -73 -258 -246 -109
-216 -622 -1343 -638 -1402 -13 -49 -15 -1045 -2 -1181 5 -50 17 -106 26 -123
25 -49 81 -107 171 -177 55 -43 86 -75 93 -96 14 -39 14 -158 1 -192 -21 -55
-39 -54 -268 28 -116 41 -397 139 -624 217 -282 97 -421 150 -438 166 -22 21
-25 33 -28 113 -4 83 -2 91 20 113 21 20 37 25 111 29 103 7 143 26 172 83 19
39 20 60 20 600 l-1 560 -26 75 c-33 92 -252 672 -423 1115 -70 182 -147 373
-172 425 -58 119 -130 194 -257 265 -115 63 -128 84 -124 188 3 69 6 81 27 98
13 10 31 19 40 19 9 0 126 -16 261 -35z"/>
<path d="M10336 6114 c-8 -20 -8 -108 0 -128 3 -8 47 -39 97 -68 109 -63 200
-145 246 -222 41 -69 97 -208 351 -871 276 -722 290 -760 301 -845 6 -46 9
-277 7 -595 -4 -559 -4 -561 -57 -619 -37 -41 -81 -56 -177 -63 -47 -3 -87
-10 -90 -15 -11 -18 -4 -142 8 -154 7 -7 189 -73 403 -147 215 -74 489 -171
610 -215 256 -93 249 -94 243 22 -4 65 -6 70 -43 103 -224 196 -241 220 -256
372 -6 53 -9 345 -7 651 l3 555 34 75 c246 546 502 1103 577 1257 124 257 171
305 328 346 32 9 61 18 64 22 14 13 14 150 0 167 -10 13 -51 22 -168 37 -85
12 -263 38 -395 60 -132 21 -243 37 -247 34 -5 -2 -8 -40 -8 -83 0 -78 1 -79
33 -103 17 -13 53 -36 78 -50 99 -56 134 -124 127 -246 -5 -72 -16 -102 -237
-621 -127 -300 -238 -552 -246 -560 -13 -12 -17 -12 -29 0 -21 24 -466 1247
-484 1331 -16 75 -16 76 9 124 27 55 64 79 144 94 27 5 55 17 62 27 17 23 17
135 0 158 -10 14 -75 25 -352 61 -187 25 -469 63 -626 85 -157 22 -288 40
-291 40 -3 0 -9 -7 -12 -16z"/>
</g>
</svg>
