<?xml version="1.0" standalone="no"?>
<!DOCTYPE svg PUBLIC "-//W3C//DTD SVG 20010904//EN"
 "http://www.w3.org/TR/2001/REC-SVG-20010904/DTD/svg10.dtd">
<svg version="1.0" xmlns="http://www.w3.org/2000/svg"
 width="1344.000000pt" height="768.000000pt" viewBox="0 0 1344.000000 768.000000"
 preserveAspectRatio="xMidYMid meet">

<g transform="translate(0.000000,768.000000) scale(0.100000,-0.100000)"
fill="#000000" stroke="none">
<path d="M6203 6360 c-180 -4 -245 -8 -255 -18 -8 -8 -13 -37 -13 -72 1 -78
16 -94 110 -115 120 -26 192 -94 215 -202 8 -37 10 -357 8 -1105 -5 -1190 0
-1121 -82 -1201 -45 -45 -79 -65 -169 -98 -73 -26 -100 -63 -94 -128 7 -68 27
-80 117 -70 285 30 362 33 775 34 296 0 481 -4 565 -13 134 -14 594 -79 622
-88 23 -7 25 5 38 231 27 484 31 561 45 723 16 183 14 198 -27 226 -23 17 -93
22 -102 8 -2 -4 -16 -61 -31 -127 -32 -144 -63 -230 -123 -350 -92 -185 -203
-315 -312 -363 -85 -37 -157 -45 -295 -32 -125 12 -174 26 -214 63 -56 52 -56
52 -59 567 -1 261 1 759 5 1105 l8 630 30 60 c38 76 95 117 197 140 97 22 108
33 108 107 0 107 38 98 -423 96 -221 -1 -511 -5 -644 -8z"/>
<path d="M5295 6330 c-441 -38 -734 -62 -1255 -100 -300 -22 -554 -44 -566
-49 -15 -7 -23 -22 -28 -57 -8 -64 -7 -126 3 -142 4 -8 40 -18 80 -23 145 -18
211 -79 233 -215 14 -91 3 -2289 -13 -2384 -20 -127 -99 -230 -227 -298 -88
-47 -102 -69 -102 -157 0 -51 4 -76 14 -85 16 -13 1 -17 396 109 537 171 1084
289 1653 356 38 4 60 12 66 23 4 9 11 62 14 117 4 55 11 154 16 220 6 66 15
185 21 265 5 80 14 203 20 275 6 71 9 139 6 151 -10 38 -109 61 -135 31 -6 -8
-20 -57 -31 -110 -52 -253 -199 -530 -359 -679 -136 -125 -364 -215 -528 -206
-80 4 -104 18 -132 78 -14 31 -16 104 -19 578 l-3 542 23 9 c13 5 62 12 110
16 203 16 281 -57 343 -320 14 -60 31 -115 37 -122 6 -7 29 -13 53 -13 78 0
74 -40 78 639 3 652 5 631 -49 631 -32 0 -80 -25 -88 -45 -3 -9 -6 -27 -6 -39
0 -41 -40 -180 -70 -244 -66 -141 -164 -226 -298 -258 -85 -20 -111 -18 -123
9 -7 16 -8 183 -2 539 l9 516 25 49 c46 88 105 110 324 120 203 9 278 -17 385
-134 95 -103 181 -292 220 -483 23 -114 27 -127 43 -133 23 -9 76 5 98 26 l22
20 -8 486 c-4 306 -11 491 -17 499 -6 6 -16 11 -22 11 -6 -1 -101 -9 -211 -19z"/>
<path d="M8317 6313 c-25 -29 -23 -102 6 -144 17 -26 39 -40 95 -60 117 -44
177 -102 203 -199 16 -57 24 -1726 11 -2085 -8 -212 -11 -245 -29 -280 -38
-73 -87 -100 -199 -111 -93 -9 -104 -20 -104 -104 0 -51 4 -71 18 -82 11 -10
121 -35 302 -67 468 -85 705 -139 1030 -236 256 -77 439 -136 612 -198 79 -29
130 -42 134 -36 3 6 14 189 24 407 10 218 24 504 31 636 l13 239 -33 29 c-27
24 -40 29 -74 26 -36 -3 -42 -6 -45 -28 -8 -71 -48 -254 -70 -320 -75 -227
-220 -443 -338 -503 -79 -40 -176 -41 -314 -2 -229 65 -274 116 -290 332 -12
153 -12 2069 0 2193 10 111 22 155 53 201 29 44 115 87 192 95 33 4 66 11 73
17 8 6 12 38 12 93 0 76 -2 85 -22 98 -17 10 -94 17 -293 26 -260 11 -634 40
-780 60 -169 23 -199 23 -218 3z"/>
<path d="M3055 6129 c-61 -16 -268 -41 -655 -79 -207 -20 -210 -22 -210 -139
0 -91 3 -95 86 -117 107 -27 144 -65 144 -144 0 -61 -28 -122 -152 -331 -134
-226 -243 -410 -416 -709 -168 -290 -209 -353 -248 -379 -18 -12 -43 -21 -56
-19 l-23 3 3 565 c2 318 8 598 14 640 22 159 95 241 271 305 26 9 55 28 63 41
34 50 30 185 -6 204 -13 7 -53 3 -139 -15 -248 -50 -440 -77 -826 -115 -350
-35 -383 -43 -398 -97 -11 -38 0 -155 16 -177 8 -9 46 -21 102 -29 113 -18
156 -36 188 -79 33 -42 44 -95 52 -233 3 -60 2 -699 -4 -1420 -10 -1409 -8
-1382 -61 -1485 -32 -63 -103 -133 -190 -190 -77 -49 -79 -51 -91 -106 -10
-44 -10 -69 -1 -112 6 -30 14 -57 17 -60 7 -8 54 6 210 63 384 139 600 209
857 280 86 24 166 49 178 55 31 16 50 70 50 137 0 91 -11 100 -121 105 -90 3
-91 3 -124 40 -18 20 -39 53 -46 75 -8 27 -13 211 -16 649 l-5 611 28 22 c40
31 97 22 141 -22 35 -34 137 -224 377 -698 200 -394 201 -411 52 -551 l-71
-67 -3 -89 c-6 -134 -19 -133 280 -14 262 104 417 156 648 217 200 53 297 86
316 106 20 22 29 92 20 152 l-7 44 -68 5 c-83 6 -158 43 -207 103 -57 70 -134
217 -496 941 -271 541 -349 707 -345 725 7 25 46 94 255 444 296 495 402 616
635 715 43 18 85 42 93 54 9 13 14 47 14 98 0 66 -3 79 -19 88 -23 12 -17 12
-106 -11z"/>
<path d="M10320 6131 c-5 -11 -10 -49 -10 -84 0 -58 3 -68 28 -91 15 -14 59
-41 97 -62 194 -101 260 -206 464 -735 59 -156 143 -378 186 -494 43 -115 111
-300 152 -410 67 -178 76 -211 84 -300 11 -129 11 -810 0 -982 -14 -207 -46
-247 -216 -259 -50 -4 -96 -11 -102 -17 -9 -6 -13 -37 -13 -87 0 -63 4 -82 21
-104 11 -14 26 -26 33 -26 28 0 884 -287 1049 -352 142 -55 181 -67 193 -57
10 8 14 35 14 99 0 102 -9 118 -95 176 -80 52 -159 143 -186 211 -20 53 -23
82 -30 343 -12 452 -11 922 3 961 12 36 146 339 228 519 27 58 84 184 128 280
218 482 329 703 382 763 52 58 106 91 185 111 84 22 95 39 95 143 0 118 -4
123 -93 123 -163 0 -378 28 -584 76 -133 31 -158 31 -179 -1 -12 -19 -15 -42
-12 -99 4 -86 18 -108 88 -138 140 -60 191 -184 142 -344 -30 -97 -460 -1093
-472 -1094 -3 0 -22 49 -44 108 -34 95 -125 341 -286 777 -108 290 -160 454
-160 502 0 88 55 140 168 158 62 10 75 35 70 131 -6 116 4 112 -323 139 -157
14 -423 45 -635 75 -36 5 -121 21 -189 35 -149 30 -167 31 -181 6z"/>
</g>
</svg>
