<?xml version="1.0" standalone="no"?>
<!DOCTYPE svg PUBLIC "-//W3C//DTD SVG 20010904//EN"
 "http://www.w3.org/TR/2001/REC-SVG-20010904/DTD/svg10.dtd">
<svg version="1.0" xmlns="http://www.w3.org/2000/svg"
 width="1179.000000pt" height="695.000000pt" viewBox="0 0 1179.000000 695.000000"
 preserveAspectRatio="xMidYMid meet">

<g transform="translate(0.000000,695.000000) scale(0.100000,-0.100000)"
fill="#000000" stroke="none">
<path d="M0 3475 l0 -3475 5895 0 5895 0 0 3475 0 3475 -5895 0 -5895 0 0
-3475z m6366 2201 c8 -11 14 -41 14 -66 0 -58 -17 -75 -94 -95 -120 -31 -174
-80 -195 -175 -5 -26 -11 -438 -13 -995 -3 -1054 -8 -980 62 -1038 38 -33 94
-42 245 -42 116 0 123 1 187 33 165 81 325 345 383 634 21 101 28 112 73 104
75 -12 82 -37 62 -246 -5 -58 -19 -260 -30 -450 -12 -189 -23 -346 -25 -349
-2 -2 -100 10 -217 27 -370 55 -407 57 -838 57 -317 0 -438 -4 -556 -18 -203
-23 -200 -23 -220 14 -20 39 -12 88 19 117 12 11 47 30 78 42 140 52 178 108
190 280 12 181 11 1760 -2 1818 -20 94 -93 160 -198 181 -44 9 -64 18 -72 33
-16 30 -17 114 -1 130 10 10 110 14 445 19 662 8 686 8 703 -15z m-1512 -23
c2 -10 8 -205 11 -434 l7 -416 -27 -21 c-34 -27 -81 -29 -93 -4 -5 9 -15 49
-22 87 -31 169 -119 362 -207 452 -89 92 -178 117 -368 102 -171 -13 -230 -46
-256 -141 -7 -28 -11 -197 -12 -492 l-2 -451 62 1 c80 1 175 46 230 108 67 76
115 194 138 338 3 22 15 44 28 53 30 21 84 20 96 -3 6 -12 7 -142 1 -363 -5
-189 -6 -423 -3 -519 7 -201 4 -210 -67 -210 -47 0 -50 5 -80 125 -34 139 -71
209 -128 242 -42 25 -56 28 -137 27 -49 0 -102 -3 -117 -7 l-28 -7 0 -468 c0
-278 4 -481 10 -503 23 -81 94 -104 234 -75 151 31 271 94 372 193 122 121
243 356 289 560 13 58 30 110 37 115 20 14 91 1 106 -19 10 -13 12 -36 8 -83
-4 -36 -20 -235 -36 -444 -17 -213 -34 -384 -41 -392 -5 -7 -36 -16 -67 -19
-511 -58 -1024 -174 -1580 -356 -101 -34 -190 -58 -198 -55 -10 4 -14 24 -14
74 0 84 14 105 98 150 77 41 143 113 172 188 l23 59 8 1000 c8 1001 6 1124
-25 1183 -34 66 -120 112 -209 112 -45 0 -50 12 -45 99 3 45 8 84 11 88 4 3
208 21 454 40 247 19 624 49 838 67 478 41 522 42 529 19z m2661 -13 c223 -24
517 -46 735 -55 196 -9 200 -11 200 -104 0 -43 -5 -72 -12 -79 -7 -5 -41 -14
-75 -20 -118 -21 -155 -50 -189 -152 -17 -51 -18 -117 -22 -989 -2 -540 1
-983 6 -1048 16 -180 53 -225 236 -277 125 -37 182 -42 248 -22 89 26 177 115
261 266 46 82 113 282 128 380 19 128 15 120 55 120 26 0 43 -8 65 -29 34 -34
34 -39 18 -258 -5 -82 -18 -313 -28 -515 -9 -202 -20 -370 -23 -374 -4 -3
-136 37 -295 90 -497 165 -696 216 -1178 306 -176 33 -323 60 -327 60 -4 0
-14 7 -22 16 -20 19 -22 126 -3 142 7 6 37 14 67 17 119 14 177 53 202 138 10
32 12 269 13 1022 0 916 -1 983 -18 1031 -28 81 -74 119 -210 173 -56 22 -89
128 -51 165 19 19 -8 20 219 -4z m-4737 -152 c7 -7 12 -39 12 -74 0 -77 -20
-106 -91 -129 -72 -24 -186 -104 -258 -180 -76 -82 -141 -178 -319 -476 -177
-296 -213 -365 -205 -387 12 -33 495 -1010 596 -1202 139 -268 202 -330 334
-330 47 0 53 -11 53 -98 0 -81 -13 -89 -235 -151 -278 -77 -416 -123 -642
-213 -111 -45 -209 -78 -217 -75 -13 5 -16 23 -16 88 l0 82 64 59 c75 70 101
121 90 182 -11 66 -415 864 -464 917 -23 24 -36 29 -74 29 -83 0 -80 26 -73
-573 4 -338 11 -536 18 -562 6 -21 26 -54 44 -72 31 -31 37 -33 107 -33 44 0
79 -5 86 -12 7 -7 12 -41 12 -84 0 -100 -14 -115 -145 -149 -186 -49 -369
-107 -650 -207 -374 -133 -332 -124 -345 -80 -13 48 -13 83 1 138 10 39 18 48
68 76 76 43 147 117 177 182 15 33 28 87 34 138 5 46 12 603 15 1238 7 1179 5
1283 -30 1350 -21 40 -75 66 -174 83 -45 8 -84 17 -87 20 -18 18 -30 139 -18
172 13 33 64 44 355 74 365 38 399 43 636 88 229 44 223 45 223 -61 0 -84 -13
-109 -68 -127 -110 -35 -189 -102 -225 -189 -22 -54 -22 -63 -25 -597 -3 -518
-2 -543 15 -543 46 0 83 40 166 182 261 441 550 935 568 971 12 22 24 66 26
97 5 52 3 60 -23 89 -21 23 -46 36 -89 47 -33 9 -66 20 -72 26 -15 12 -17 115
-4 151 5 13 17 27 27 31 10 4 110 16 223 27 279 26 436 46 496 63 64 18 88 19
103 4z m6507 -21 c172 -31 403 -61 676 -87 113 -10 213 -22 223 -26 24 -9 36
-45 36 -107 0 -71 -16 -91 -87 -106 -41 -10 -67 -23 -90 -46 -49 -49 -46 -97
20 -287 100 -286 370 -1008 377 -1008 9 0 36 61 256 572 167 386 187 454 165
536 -16 57 -62 107 -131 142 -34 17 -61 38 -68 55 -16 35 -15 137 1 160 17 22
55 19 232 -19 154 -32 266 -46 383 -46 129 0 132 -2 132 -101 0 -44 -5 -89
-10 -99 -6 -12 -34 -26 -68 -36 -73 -21 -152 -74 -184 -122 -61 -90 -155 -288
-441 -921 l-192 -426 0 -525 c0 -514 1 -526 22 -596 27 -84 72 -140 173 -213
40 -29 72 -61 75 -74 3 -12 5 -54 3 -92 -3 -62 -5 -70 -24 -73 -11 -2 -88 24
-170 56 -115 45 -615 214 -900 303 -39 12 -54 44 -54 119 0 75 17 90 108 90
86 0 125 20 153 76 31 65 42 286 36 704 -6 403 11 322 -171 812 -276 742 -344
908 -421 1024 -60 90 -89 116 -200 175 -91 49 -110 78 -102 151 10 81 -5 79
242 35z"/>
</g>
</svg>
