 <svg  version="1.0" xmlns="http://www.w3.org/2000/svg"  width="300.000000pt" height="171.000000pt" viewBox="0 0 300.000000 171.000000"  preserveAspectRatio="xMidYMid meet">  <g transform="translate(0.000000,171.000000) scale(0.100000,-0.100000)" fill="#a30000" stroke="none"> <path d="M1323 1434 c-7 -3 -13 -19 -13 -35 0 -23 6 -32 28 -42 15 -6 30 -16 34 -22 4 -5 8 -122 8 -258 l0 -248 -34 -14 c-36 -15 -50 -37 -41 -65 5 -16 24 -18 193 -18 103 0 210 -4 239 -9 29 -5 57 -7 63 -3 6 3 14 64 18 139 7 131 7 134 -15 148 -29 19 -40 11 -54 -40 -14 -54 -54 -124 -79 -137 -21 -11 -60 -13 -84 -4 -14 5 -16 38 -16 261 l0 254 36 15 c31 13 35 18 32 47 l-3 32 -150 2 c-82 1 -156 -1 -162 -3z m295 -13 c26 -2 12 -42 -18 -53 -17 -5 -35 -19 -41 -30 -7 -13 -10 -106 -10 -262 2 -271 0 -266 76 -266 64 0 108 48 135 148 8 32 15 42 28 40 15 -3 17 -18 14 -133 -2 -71 -5 -131 -7 -133 -2 -2 -49 2 -105 8 -55 7 -161 10 -234 8 l-133 -4 0 24 c0 16 8 27 26 33 14 6 29 16 33 22 4 7 8 126 8 265 l0 253 -35 20 c-20 12 -35 29 -35 39 0 16 9 19 53 22 48 3 215 2 245 -1z"/> <path d="M965 1413 c-203 -17 -217 -21 -213 -65 2 -27 8 -33 36 -40 l32 -9 0 -280 0 -281 -36 -33 c-32 -30 -39 -32 -66 -23 -25 9 -41 35 -120 192 l-90 181 56 95 c58 97 80 122 135 152 33 18 42 56 19 76 -16 12 -230 -15 -240 -32 -16 -24 -8 -56 17 -68 14 -6 25 -15 25 -20 0 -5 -34 -67 -76 -139 -42 -71 -74 -132 -72 -135 8 -7 158 255 158 275 0 10 -11 23 -25 29 -27 13 -32 34 -12 50 6 5 37 13 67 16 30 4 76 9 103 12 45 6 47 6 47 -19 0 -20 -10 -31 -41 -49 -41 -23 -92 -90 -147 -195 l-27 -53 95 -187 c86 -171 98 -188 124 -193 28 -5 41 -27 27 -47 -5 -7 -167 -67 -273 -100 -26 -8 -24 39 2 62 11 10 20 25 20 34 -1 23 -113 234 -126 238 -7 2 -14 -7 -18 -20 -6 -27 1 -255 10 -268 3 -5 16 -9 30 -9 20 0 24 -5 24 -28 0 -27 -5 -29 -143 -75 -78 -26 -146 -47 -150 -47 -4 0 -7 11 -7 25 0 16 11 32 30 47 31 23 57 88 44 110 -4 6 -3 9 2 5 5 -3 8 116 6 291 -3 322 -6 342 -57 342 -21 0 -25 5 -25 30 0 34 -8 32 168 56 67 9 129 14 137 10 24 -9 18 -34 -13 -53 -49 -32 -51 -40 -52 -187 0 -77 3 -136 7 -133 3 4 5 62 4 129 -1 68 1 131 4 140 4 9 22 26 41 37 27 16 34 27 34 50 0 16 -4 32 -9 35 -8 5 -251 -26 -308 -39 -50 -12 -40 -80 12 -89 l35 -7 0 -341 0 -340 -35 -32 c-26 -24 -35 -41 -35 -64 0 -17 4 -33 8 -36 5 -3 76 18 159 45 116 39 152 55 156 70 9 34 -3 58 -32 61 l-26 3 -2 140 -2 140 60 -119 60 -118 -20 -22 c-24 -25 -28 -74 -8 -82 15 -5 272 79 292 96 7 5 14 7 17 4 3 -3 52 8 109 25 112 32 292 71 331 71 48 0 56 17 66 140 9 123 5 140 -34 140 -19 0 -25 -9 -38 -53 -21 -74 -65 -130 -115 -151 -72 -28 -71 -30 -71 104 0 97 3 120 14 120 23 0 43 -26 50 -65 8 -41 25 -52 55 -35 21 10 21 17 19 158 l-3 147 -28 0 c-26 0 -31 -6 -45 -49 -10 -27 -27 -56 -40 -64 l-23 -15 3 119 3 119 49 3 c62 4 90 -20 113 -98 8 -30 20 -58 26 -62 12 -7 39 1 49 16 9 13 11 208 2 230 -7 20 -49 19 -289 -1z m278 -98 c7 -116 3 -135 -22 -135 -12 0 -21 15 -30 50 -7 28 -24 64 -38 80 -22 26 -31 30 -78 30 -79 0 -85 -9 -85 -140 0 -60 4 -112 10 -115 17 -10 69 24 76 50 3 14 10 23 14 20 4 -2 5 6 3 19 -3 16 1 25 13 30 9 3 19 4 22 2 7 -7 11 -203 5 -248 -7 -47 -38 -50 -47 -4 -4 16 -14 38 -23 48 -18 20 -58 24 -69 7 -8 -13 -6 -205 2 -231 7 -24 47 -23 100 3 48 23 96 88 114 157 8 32 15 42 28 40 15 -3 17 -17 14 -118 -2 -63 -7 -118 -10 -122 -4 -3 -52 -14 -107 -23 -87 -15 -307 -70 -357 -90 -15 -6 -18 -2 -18 23 0 22 6 32 20 37 45 14 49 37 56 295 7 285 3 319 -44 339 -24 11 -32 21 -30 35 4 24 31 31 162 41 50 4 127 10 171 13 44 4 94 8 111 10 l31 2 6 -105z"/> <path d="M1068 1353 c7 -3 16 -2 19 1 4 3 -2 6 -13 5 -11 0 -14 -3 -6 -6z"/> <path d="M1232 1225 c0 -16 2 -22 5 -12 2 9 2 23 0 30 -3 6 -5 -1 -5 -18z"/> <path d="M842 790 c0 -14 2 -19 5 -12 2 6 2 18 0 25 -3 6 -5 1 -5 -13z"/> <path d="M1841 1411 c-12 -22 0 -61 19 -61 6 0 19 -9 30 -20 19 -19 20 -33 20 -276 l0 -255 -34 -14 c-18 -8 -36 -22 -40 -30 -13 -35 10 -48 124 -71 62 -12 168 -39 237 -60 79 -23 128 -33 134 -27 16 16 24 289 9 308 -24 29 -48 18 -60 -27 -16 -65 -47 -125 -73 -142 -32 -22 -94 -4 -107 30 -11 29 -12 486 -1 524 4 14 16 27 26 29 30 5 45 21 45 46 0 35 -18 42 -120 49 -52 4 -118 9 -147 12 -45 5 -53 4 -62 -15z m253 -15 c27 -3 52 -10 57 -17 11 -19 -1 -39 -27 -45 -14 -4 -29 -14 -34 -24 -6 -11 -10 -131 -10 -284 0 -246 1 -267 19 -285 28 -28 87 -36 118 -16 25 17 73 106 73 137 0 35 11 48 31 38 18 -10 18 -20 13 -148 -4 -75 -9 -140 -13 -144 -3 -4 -55 8 -114 27 -59 19 -154 44 -210 55 -56 12 -112 23 -124 26 -37 7 -31 48 10 59 l32 10 3 255 c1 140 0 265 -3 277 -3 13 -19 30 -35 38 -26 14 -39 42 -25 56 4 4 103 -2 239 -15z"/> <path d="M2290 1370 c-16 -29 -5 -51 38 -81 35 -24 44 -41 110 -215 l72 -189 0 -127 0 -127 -32 -9 c-29 -7 -33 -12 -33 -43 l0 -34 145 -51 c80 -28 151 -49 158 -46 6 2 12 18 12 36 0 23 -8 38 -32 58 l-33 27 0 148 0 148 79 168 c71 151 82 169 112 182 28 12 34 19 34 45 0 38 -15 45 -129 60 -68 9 -85 9 -92 -2 -17 -26 -9 -53 23 -79 l32 -27 -33 -78 c-19 -44 -40 -95 -49 -114 l-15 -35 -12 35 c-7 19 -29 79 -48 132 l-36 97 27 13 c30 15 41 58 20 75 -7 6 -67 18 -133 27 -66 9 -132 19 -147 22 -20 4 -29 0 -38 -16z m185 -18 c116 -16 120 -18 123 -43 2 -19 -3 -28 -23 -37 -14 -6 -25 -16 -25 -21 0 -6 23 -73 52 -150 43 -117 54 -137 63 -123 21 31 95 213 95 232 0 11 -11 27 -25 36 -15 10 -25 26 -25 40 0 20 5 24 33 24 17 -1 61 -6 97 -13 55 -10 65 -15 68 -35 2 -15 -3 -25 -20 -31 -38 -14 -53 -38 -132 -210 l-76 -164 0 -138 0 -139 35 -39 c35 -38 47 -81 23 -81 -7 0 -74 22 -148 48 -125 44 -135 50 -138 75 -3 23 0 27 20 27 43 0 48 16 48 154 l0 131 -72 189 c-66 174 -75 191 -110 215 -24 17 -37 34 -38 49 0 27 9 27 175 4z"/> </g> </svg> 